<svg width="22" height="18" viewBox="0 0 22 18" fill="none" xmlns="http://www.w3.org/2000/svg">
<path d="M11.75 5.25V12.75M17.75 5.25H14.75V9M14.75 9V12.75M14.75 9H17M8.75 6.348C7.72 4.884 6.052 4.884 5.022 6.348C3.992 7.813 3.992 10.188 5.022 11.652C6.052 13.116 7.721 13.116 8.75 11.652V9H7.25M3.5 16.5H18.5C19.0967 16.5 19.669 16.2629 20.091 15.841C20.5129 15.419 20.75 14.8467 20.75 14.25V3.75C20.75 3.15326 20.5129 2.58097 20.091 2.15901C19.669 1.73705 19.0967 1.5 18.5 1.5H3.5C2.90326 1.5 2.33097 1.73705 1.90901 2.15901C1.48705 2.58097 1.25 3.15326 1.25 3.75V14.25C1.25 14.8467 1.48705 15.419 1.90901 15.841C2.33097 16.2629 2.90326 16.5 3.5 16.5Z" stroke="url(#paint0_linear_1_6)" stroke-width="1.5" stroke-linecap="round" stroke-linejoin="round"/>
<defs>
<linearGradient id="paint0_linear_1_6" x1="0" y1="24" x2="24" y2="5" gradientUnits="userSpaceOnUse">
<stop offset="0.32" stop-color="#8319E6"/>
<stop offset="1" stop-color="#C619E6"/>
</linearGradient>
</defs>
</svg>
